<mxfile host="app.diagrams.net" agent="Mozilla/5.0 (Windows NT 10.0; Win64; x64) AppleWebKit/537.36 (KHTML, like Gecko) Chrome/135.0.0.0 Safari/537.36 Edg/135.0.0.0" version="26.2.12">
  <diagram name="Página-1" id="SgHWeOh2NF5JsfvJGHp0">
    <mxGraphModel dx="1727" dy="893" grid="1" gridSize="10" guides="1" tooltips="1" connect="1" arrows="1" fold="1" page="1" pageScale="1" pageWidth="3300" pageHeight="4681" math="0" shadow="0">
      <root>
        <mxCell id="0" />
        <mxCell id="1" parent="0" />
        <mxCell id="lSrNjrEC_3yFH3J3TiM1-49" value="Administrador" style="shape=umlActor;verticalLabelPosition=bottom;verticalAlign=top;html=1;outlineConnect=0;" parent="1" vertex="1">
          <mxGeometry x="50" y="440" width="30" height="60" as="geometry" />
        </mxCell>
        <mxCell id="lSrNjrEC_3yFH3J3TiM1-50" value="Visualizar Kanban" style="ellipse;whiteSpace=wrap;html=1;" parent="1" vertex="1">
          <mxGeometry x="340" y="350" width="120" height="80" as="geometry" />
        </mxCell>
        <mxCell id="lSrNjrEC_3yFH3J3TiM1-51" value="Manter Pacientes" style="ellipse;whiteSpace=wrap;html=1;" parent="1" vertex="1">
          <mxGeometry x="340" y="530" width="120" height="80" as="geometry" />
        </mxCell>
        <mxCell id="lSrNjrEC_3yFH3J3TiM1-53" value="Manter Protéticos" style="ellipse;whiteSpace=wrap;html=1;" parent="1" vertex="1">
          <mxGeometry x="340" y="620" width="120" height="80" as="geometry" />
        </mxCell>
        <mxCell id="lSrNjrEC_3yFH3J3TiM1-54" value="" style="endArrow=none;html=1;rounded=0;entryX=1;entryY=0.3333333333333333;entryDx=0;entryDy=0;entryPerimeter=0;exitX=0;exitY=0.5;exitDx=0;exitDy=0;" parent="1" source="lSrNjrEC_3yFH3J3TiM1-50" target="lSrNjrEC_3yFH3J3TiM1-49" edge="1">
          <mxGeometry width="50" height="50" relative="1" as="geometry">
            <mxPoint x="450" y="490" as="sourcePoint" />
            <mxPoint x="500" y="440" as="targetPoint" />
          </mxGeometry>
        </mxCell>
        <mxCell id="lSrNjrEC_3yFH3J3TiM1-55" value="" style="endArrow=none;html=1;rounded=0;entryX=1;entryY=0.3333333333333333;entryDx=0;entryDy=0;entryPerimeter=0;exitX=0;exitY=0.5;exitDx=0;exitDy=0;" parent="1" source="lSrNjrEC_3yFH3J3TiM1-51" target="lSrNjrEC_3yFH3J3TiM1-49" edge="1">
          <mxGeometry width="50" height="50" relative="1" as="geometry">
            <mxPoint x="450" y="490" as="sourcePoint" />
            <mxPoint x="500" y="440" as="targetPoint" />
          </mxGeometry>
        </mxCell>
        <mxCell id="lSrNjrEC_3yFH3J3TiM1-60" value="" style="endArrow=none;html=1;rounded=0;entryX=1;entryY=0.3333333333333333;entryDx=0;entryDy=0;entryPerimeter=0;exitX=-0.019;exitY=0.41;exitDx=0;exitDy=0;exitPerimeter=0;" parent="1" source="lSrNjrEC_3yFH3J3TiM1-53" target="lSrNjrEC_3yFH3J3TiM1-49" edge="1">
          <mxGeometry width="50" height="50" relative="1" as="geometry">
            <mxPoint x="170" y="590" as="sourcePoint" />
            <mxPoint x="90" y="460" as="targetPoint" />
          </mxGeometry>
        </mxCell>
        <mxCell id="lSrNjrEC_3yFH3J3TiM1-63" value="Logar" style="ellipse;whiteSpace=wrap;html=1;" parent="1" vertex="1">
          <mxGeometry x="340" y="260" width="120" height="80" as="geometry" />
        </mxCell>
        <mxCell id="lSrNjrEC_3yFH3J3TiM1-64" value="" style="endArrow=none;html=1;rounded=0;exitX=0;exitY=0.5;exitDx=0;exitDy=0;" parent="1" source="lSrNjrEC_3yFH3J3TiM1-63" edge="1">
          <mxGeometry width="50" height="50" relative="1" as="geometry">
            <mxPoint x="480" y="520" as="sourcePoint" />
            <mxPoint x="80" y="460" as="targetPoint" />
          </mxGeometry>
        </mxCell>
        <mxCell id="lSrNjrEC_3yFH3J3TiM1-68" value="Manter Dentistas" style="ellipse;whiteSpace=wrap;html=1;" parent="1" vertex="1">
          <mxGeometry x="340" y="710" width="120" height="80" as="geometry" />
        </mxCell>
        <mxCell id="lSrNjrEC_3yFH3J3TiM1-69" value="" style="endArrow=none;html=1;rounded=0;exitX=0;exitY=0.5;exitDx=0;exitDy=0;" parent="1" source="lSrNjrEC_3yFH3J3TiM1-68" edge="1">
          <mxGeometry width="50" height="50" relative="1" as="geometry">
            <mxPoint x="338" y="673" as="sourcePoint" />
            <mxPoint x="80" y="460" as="targetPoint" />
          </mxGeometry>
        </mxCell>
        <mxCell id="lSrNjrEC_3yFH3J3TiM1-81" value="Acessar configuração" style="ellipse;whiteSpace=wrap;html=1;" parent="1" vertex="1">
          <mxGeometry x="340" y="1070" width="120" height="80" as="geometry" />
        </mxCell>
        <mxCell id="lSrNjrEC_3yFH3J3TiM1-83" value="" style="endArrow=none;html=1;rounded=0;exitX=0;exitY=0.5;exitDx=0;exitDy=0;entryX=1;entryY=0.3333333333333333;entryDx=0;entryDy=0;entryPerimeter=0;" parent="1" target="lSrNjrEC_3yFH3J3TiM1-49" edge="1" source="lSrNjrEC_3yFH3J3TiM1-81">
          <mxGeometry width="50" height="50" relative="1" as="geometry">
            <mxPoint x="340" y="850" as="sourcePoint" />
            <mxPoint x="80" y="550" as="targetPoint" />
          </mxGeometry>
        </mxCell>
        <mxCell id="yn1h1SYY6ZzJjWJtAD5j-4" value="Manter Pedidos" style="ellipse;whiteSpace=wrap;html=1;" vertex="1" parent="1">
          <mxGeometry x="340" y="440" width="120" height="80" as="geometry" />
        </mxCell>
        <mxCell id="yn1h1SYY6ZzJjWJtAD5j-5" value="" style="endArrow=none;html=1;rounded=0;entryX=1;entryY=0.3333333333333333;entryDx=0;entryDy=0;entryPerimeter=0;exitX=0;exitY=0.5;exitDx=0;exitDy=0;" edge="1" parent="1" source="yn1h1SYY6ZzJjWJtAD5j-4" target="lSrNjrEC_3yFH3J3TiM1-49">
          <mxGeometry width="50" height="50" relative="1" as="geometry">
            <mxPoint x="460" y="560" as="sourcePoint" />
            <mxPoint x="90" y="530" as="targetPoint" />
          </mxGeometry>
        </mxCell>
        <mxCell id="yn1h1SYY6ZzJjWJtAD5j-6" value="Manter Serviços" style="ellipse;whiteSpace=wrap;html=1;" vertex="1" parent="1">
          <mxGeometry x="340" y="800" width="120" height="80" as="geometry" />
        </mxCell>
        <mxCell id="yn1h1SYY6ZzJjWJtAD5j-7" value="Manter Materiais" style="ellipse;whiteSpace=wrap;html=1;" vertex="1" parent="1">
          <mxGeometry x="340" y="890" width="120" height="80" as="geometry" />
        </mxCell>
        <mxCell id="yn1h1SYY6ZzJjWJtAD5j-8" value="Acessar Relatórios" style="ellipse;whiteSpace=wrap;html=1;" vertex="1" parent="1">
          <mxGeometry x="340" y="980" width="120" height="80" as="geometry" />
        </mxCell>
        <mxCell id="yn1h1SYY6ZzJjWJtAD5j-9" value="" style="endArrow=none;html=1;rounded=0;exitX=0;exitY=0.5;exitDx=0;exitDy=0;entryX=1;entryY=0.3333333333333333;entryDx=0;entryDy=0;entryPerimeter=0;" edge="1" parent="1" source="yn1h1SYY6ZzJjWJtAD5j-6" target="lSrNjrEC_3yFH3J3TiM1-49">
          <mxGeometry width="50" height="50" relative="1" as="geometry">
            <mxPoint x="170" y="710" as="sourcePoint" />
            <mxPoint x="220" y="660" as="targetPoint" />
          </mxGeometry>
        </mxCell>
        <mxCell id="yn1h1SYY6ZzJjWJtAD5j-10" value="" style="endArrow=none;html=1;rounded=0;exitX=0;exitY=0.5;exitDx=0;exitDy=0;entryX=1;entryY=0.3333333333333333;entryDx=0;entryDy=0;entryPerimeter=0;" edge="1" parent="1" source="yn1h1SYY6ZzJjWJtAD5j-7" target="lSrNjrEC_3yFH3J3TiM1-49">
          <mxGeometry width="50" height="50" relative="1" as="geometry">
            <mxPoint x="20" y="740" as="sourcePoint" />
            <mxPoint x="70" y="690" as="targetPoint" />
          </mxGeometry>
        </mxCell>
        <mxCell id="yn1h1SYY6ZzJjWJtAD5j-11" value="" style="endArrow=none;html=1;rounded=0;exitX=0;exitY=0.5;exitDx=0;exitDy=0;entryX=1;entryY=0.3333333333333333;entryDx=0;entryDy=0;entryPerimeter=0;" edge="1" parent="1" source="yn1h1SYY6ZzJjWJtAD5j-8" target="lSrNjrEC_3yFH3J3TiM1-49">
          <mxGeometry width="50" height="50" relative="1" as="geometry">
            <mxPoint x="240" y="970" as="sourcePoint" />
            <mxPoint x="290" y="920" as="targetPoint" />
          </mxGeometry>
        </mxCell>
      </root>
    </mxGraphModel>
  </diagram>
</mxfile>
